# xmcd CD database file
#
# Track frame offsets:
#	150
#	14812
#	28838
#	43300
#	54747
#	68764
#	82892
#	96339
#	106829
#	119414
#	130938
#	142325
#	154553
#	167626
#	182212
#	194423
#	208065
#	221342
#	233817
#	247014
#
# Disc length: 3427 seconds
#
# Revision: 0
# Processed by: cddbd v1.5.1PL0 Copyright (c) Steve Scherf et al.
# Submitted via: CDex 1.51
#
DISCID=2d0d6114
DTITLE=John Lee Hooker - Hommage
DYEAR=1900
DGENRE=Blues
TTITLE0=Four Women In My Life
TTITLE1=Apologize
TTITLE2=Mean Old Train
TTITLE3=Please Don't Go
TTITLE4=I Don't Want Your Money
TTITLE5=Worried Life Blues
TTITLE6=Women And Money
TTITLE7=Stuttering Blues
TTITLE8=I Need Lovin'
TTITLE9=Blue Monday
TTITLE10=I Ain't Got Nobody
TTITLE11=Guitar Lovin' Man
TTITLE12=Rock House Boogie
TTITLE13=Blues For Big Town
TTITLE14=Find Me A Woman
TTITLE15=Too Much Boogie
TTITLE16=Walkin' The Boogie
TTITLE17=High Peiced Woman
TTITLE18=Do My Baby Think Of Me
TTITLE19=Hey Boogie
EXTD=
EXTT0=
EXTT1=
EXTT2=
EXTT3=
EXTT4=
EXTT5=
EXTT6=
EXTT7=
EXTT8=
EXTT9=
EXTT10=
EXTT11=
EXTT12=
EXTT13=
EXTT14=
EXTT15=
EXTT16=
EXTT17=
EXTT18=
EXTT19=
PLAYORDER=
